<svg width="175" height="165" viewBox="0 0 175 165" fill="none" xmlns="http://www.w3.org/2000/svg">
<path d="M28.4231 125V123.5H26.9231H1.5V1.5H173.5V123.5H66.2035H65.5821L65.1428 123.939L28.4231 160.659V125Z" fill="#F3EE1E" stroke="#4D4D4D" stroke-width="3"/>
<path d="M75.5681 74.576V98H64.9121V32.24H89.8721C104.72 32.24 112.144 39.216 112.144 53.168C112.144 62.512 108.56 68.848 101.392 72.176L112.24 98H100.528L91.0241 74.576H75.5681ZM101.2 53.264C101.2 45.392 97.4241 41.456 89.8721 41.456H75.5681V65.36H90.0641C93.9041 65.36 96.7201 64.272 98.5121 62.096C100.304 59.856 101.2 56.912 101.2 53.264Z" fill="#4D4D4D"/>
<path d="M75.5681 74.576V73.576H74.5681V74.576H75.5681ZM75.5681 98V99H76.5681V98H75.5681ZM64.9121 98H63.9121V99H64.9121V98ZM64.9121 32.24V31.24H63.9121V32.24H64.9121ZM101.392 72.176L100.971 71.269L100.097 71.6748L100.47 72.5633L101.392 72.176ZM112.24 98V99H113.745L113.162 97.6127L112.24 98ZM100.528 98L99.6015 98.376L99.8547 99H100.528V98ZM91.0241 74.576L91.9508 74.2L91.6976 73.576H91.0241V74.576ZM75.5681 41.456V40.456H74.5681V41.456H75.5681ZM75.5681 65.36H74.5681V66.36H75.5681V65.36ZM98.5121 62.096L99.2841 62.7317L99.2886 62.7262L99.293 62.7207L98.5121 62.096ZM74.5681 74.576V98H76.5681V74.576H74.5681ZM75.5681 97H64.9121V99H75.5681V97ZM65.9121 98V32.24H63.9121V98H65.9121ZM64.9121 33.24H89.8721V31.24H64.9121V33.24ZM89.8721 33.24C97.1569 33.24 102.435 34.9525 105.891 38.2007C109.337 41.438 111.144 46.3626 111.144 53.168H113.144C113.144 46.0214 111.24 40.482 107.261 36.7432C103.294 33.0155 97.4353 31.24 89.8721 31.24V33.24ZM111.144 53.168C111.144 57.7153 110.272 61.4546 108.586 64.4357C106.905 67.4062 104.383 69.685 100.971 71.269L101.813 73.083C105.57 71.339 108.423 68.7858 110.327 65.4203C112.224 62.0654 113.144 57.9647 113.144 53.168H111.144ZM100.47 72.5633L111.318 98.3873L113.162 97.6127L102.314 71.7887L100.47 72.5633ZM112.24 97H100.528V99H112.24V97ZM101.455 97.624L91.9508 74.2L90.0975 74.952L99.6015 98.376L101.455 97.624ZM91.0241 73.576H75.5681V75.576H91.0241V73.576ZM102.2 53.264C102.2 49.184 101.222 45.9385 99.0897 43.7157C96.9499 41.4851 93.8131 40.456 89.8721 40.456V42.456C93.4832 42.456 96.0104 43.3948 97.6465 45.1003C99.29 46.8135 100.2 49.472 100.2 53.264H102.2ZM89.8721 40.456H75.5681V42.456H89.8721V40.456ZM74.5681 41.456V65.36H76.5681V41.456H74.5681ZM75.5681 66.36H90.0641V64.36H75.5681V66.36ZM90.0641 66.36C94.0884 66.36 97.2396 65.2142 99.2841 62.7317L97.7402 61.4603C96.2006 63.3298 93.7199 64.36 90.0641 64.36V66.36ZM99.293 62.7207C101.262 60.2599 102.2 57.0763 102.2 53.264H100.2C100.2 56.7477 99.3466 59.4521 97.7313 61.4713L99.293 62.7207Z" fill="black"/>
</svg>
