<svg width="133" height="146" viewBox="0 0 133 146" fill="none" xmlns="http://www.w3.org/2000/svg">
<g clip-path="url(#clip0_40_215)">
<path d="M21.6894 104.286V103.034H20.438H1.25143V1.25143H131.595V103.034H50.2567H49.7034L49.3311 103.443L21.6894 133.822V104.286Z" stroke="#F3EE1E" stroke-width="2.50286"/>
<path d="M12.9629 54.8631V61.3772H9.99953V43.0897H16.9408C21.0699 43.0897 23.1345 45.0296 23.1345 48.9096C23.1345 51.5082 22.1378 53.2702 20.1444 54.1957L23.1612 61.3772H19.9042L17.2612 54.8631H12.9629ZM20.0911 48.9363C20.0911 46.7472 19.041 45.6526 16.9408 45.6526H12.9629V52.3002H16.9942C18.0621 52.3002 18.8452 51.9976 19.3435 51.3925C19.8419 50.7695 20.0911 49.9508 20.0911 48.9363ZM27.8376 61.3772V43.0897H39.3708V45.6793H30.801V50.8585H37.7689V53.4214H30.801V58.7609H39.3708V61.3772H27.8376ZM43.9289 61.3772V43.0897H55.4621V45.6793H46.8923V50.8585H53.8602V53.4214H46.8923V58.7609H55.4621V61.3772H43.9289ZM60.0202 61.3772V43.0897H71.5533V45.6793H62.9836V50.8585H69.9515V53.4214H62.9836V58.7609H71.5533V61.3772H60.0202ZM74.5363 61.3772L79.0481 43.0897H84.9482L89.4867 61.3772H86.4967L85.5089 57.4527H78.4875L77.4997 61.3772H74.5363ZM81.3441 45.5725L79.0748 54.8364H84.9215L82.679 45.5725H81.3441ZM99.3077 61.6709C96.638 61.6709 94.8226 60.9322 93.8615 59.455C92.9182 57.9778 92.4466 55.5483 92.4466 52.1667C92.4466 48.785 92.9271 46.3823 93.8882 44.9585C94.8493 43.5168 96.6558 42.796 99.3077 42.796C100.892 42.796 102.636 43.0185 104.54 43.4634L104.434 45.8662C102.832 45.5814 101.23 45.439 99.6281 45.439C98.0263 45.439 96.9406 45.9196 96.3711 46.8806C95.8015 47.8239 95.5167 49.6127 95.5167 52.2468C95.5167 54.8631 95.7926 56.6518 96.3444 57.6129C96.8961 58.5562 97.9729 59.0278 99.5747 59.0278C101.177 59.0278 102.796 58.8944 104.434 58.6274L104.514 61.0835C102.68 61.4751 100.945 61.6709 99.3077 61.6709ZM119.89 61.3772V53.4748H111.987V61.3772H109.024V43.0897H111.987V50.8852H119.89V43.0897H122.88V61.3772H119.89Z" fill="#F3EE1E"/>
</g>
<defs>
<clipPath id="clip0_40_215">
<rect width="132.847" height="146" fill="white"/>
</clipPath>
</defs>
</svg>
