<svg width="133" height="146" viewBox="0 0 133 146" fill="none" xmlns="http://www.w3.org/2000/svg">
<g clip-path="url(#clip0_40_215)">
<path d="M21.6894 108.757V107.506H20.438H1.25143V5.72286H131.595V107.506H50.2567H49.7034L49.3311 107.915L21.6894 138.294V108.757Z" stroke="#F3EE1E" stroke-width="2.50286"/>
<path d="M12.9629 60.7029V67.217H9.99953V48.9295H16.9408C21.0699 48.9295 23.1345 50.8695 23.1345 54.7495C23.1345 57.348 22.1378 59.11 20.1444 60.0355L23.1612 67.217H19.9042L17.2612 60.7029H12.9629ZM20.0911 54.7762C20.0911 52.587 19.041 51.4924 16.9408 51.4924H12.9629V58.14H16.9942C18.0621 58.14 18.8452 57.8374 19.3435 57.2323C19.8419 56.6094 20.0911 55.7907 20.0911 54.7762ZM27.8376 67.217V48.9295H39.3708V51.5191H30.801V56.6984H37.7689V59.2613H30.801V64.6007H39.3708V67.217H27.8376ZM43.9289 67.217V48.9295H55.4621V51.5191H46.8923V56.6984H53.8602V59.2613H46.8923V64.6007H55.4621V67.217H43.9289ZM60.0202 67.217V48.9295H71.5533V51.5191H62.9836V56.6984H69.9515V59.2613H62.9836V64.6007H71.5533V67.217H60.0202ZM74.5363 67.217L79.0481 48.9295H84.9482L89.4867 67.217H86.4967L85.5089 63.2926H78.4875L77.4997 67.217H74.5363ZM81.3441 51.4123L79.0748 60.6762H84.9215L82.679 51.4123H81.3441ZM99.3077 67.5107C96.638 67.5107 94.8226 66.7721 93.8615 65.2948C92.9182 63.8176 92.4466 61.3882 92.4466 58.0065C92.4466 54.6249 92.9271 52.2221 93.8882 50.7983C94.8493 49.3567 96.6558 48.6358 99.3077 48.6358C100.892 48.6358 102.636 48.8583 104.54 49.3033L104.434 51.706C102.832 51.4212 101.23 51.2788 99.6281 51.2788C98.0263 51.2788 96.9406 51.7594 96.3711 52.7205C95.8015 53.6638 95.5167 55.4525 95.5167 58.0866C95.5167 60.7029 95.7926 62.4916 96.3444 63.4527C96.8961 64.396 97.9729 64.8677 99.5747 64.8677C101.177 64.8677 102.796 64.7342 104.434 64.4672L104.514 66.9234C102.68 67.3149 100.945 67.5107 99.3077 67.5107ZM119.89 67.217V59.3147H111.987V67.217H109.024V48.9295H111.987V56.7251H119.89V48.9295H122.88V67.217H119.89Z" fill="#F3EE1E"/>
<path d="M12.9629 60.7029V59.8687H12.1286V60.7029H12.9629ZM12.9629 67.217V68.0513H13.7972V67.217H12.9629ZM9.99953 67.217H9.16525V68.0513H9.99953V67.217ZM9.99953 48.9295V48.0952H9.16525V48.9295H9.99953ZM20.1444 60.0355L19.7931 59.2788L19.0639 59.6174L19.3753 60.3586L20.1444 60.0355ZM23.1612 67.217V68.0513H24.4166L23.9304 66.8939L23.1612 67.217ZM19.9042 67.217L19.1311 67.5307L19.3423 68.0513H19.9042V67.217ZM17.2612 60.7029L18.0342 60.3893L17.823 59.8687H17.2612V60.7029ZM12.9629 51.4924V50.6581H12.1286V51.4924H12.9629ZM12.9629 58.14H12.1286V58.9743H12.9629V58.14ZM19.3435 57.2323L19.9876 57.7627L19.995 57.7535L19.3435 57.2323ZM12.1286 60.7029V67.217H13.7972V60.7029H12.1286ZM12.9629 66.3828H9.99953V68.0513H12.9629V66.3828ZM10.8338 67.217V48.9295H9.16525V67.217H10.8338ZM9.99953 49.7638H16.9408V48.0952H9.99953V49.7638ZM16.9408 49.7638C18.8893 49.7638 20.1954 50.2225 21.0148 50.9925C21.8245 51.7533 22.3002 52.9518 22.3002 54.7495H23.9688C23.9688 52.6671 23.4123 50.9557 22.1574 49.7765C20.9122 48.6065 19.1215 48.0952 16.9408 48.0952V49.7638ZM22.3002 54.7495C22.3002 55.9447 22.071 56.8841 21.6608 57.6091C21.2557 58.3254 20.6461 58.8828 19.7931 59.2788L20.4958 60.7922C21.6362 60.2627 22.5216 59.4764 23.1132 58.4306C23.6997 57.3936 23.9688 56.1528 23.9688 54.7495H22.3002ZM19.3753 60.3586L22.392 67.5402L23.9304 66.8939L20.9136 59.7124L19.3753 60.3586ZM23.1612 66.3828H19.9042V68.0513H23.1612V66.3828ZM20.6772 66.9034L18.0342 60.3893L16.4881 61.0166L19.1311 67.5307L20.6772 66.9034ZM17.2612 59.8687H12.9629V61.5372H17.2612V59.8687ZM20.9253 54.7762C20.9253 53.5614 20.6345 52.4957 19.9055 51.7358C19.1703 50.9694 18.1285 50.6581 16.9408 50.6581V52.3267C17.8533 52.3267 18.3866 52.5627 18.7014 52.8909C19.0225 53.2256 19.2568 53.8017 19.2568 54.7762H20.9253ZM16.9408 50.6581H12.9629V52.3267H16.9408V50.6581ZM12.1286 51.4924V58.14H13.7972V51.4924H12.1286ZM12.9629 58.9743H16.9942V57.3057H12.9629V58.9743ZM16.9942 58.9743C18.2158 58.9743 19.2786 58.6235 19.9875 57.7627L18.6995 56.7019C18.4118 57.0514 17.9083 57.3057 16.9942 57.3057V58.9743ZM19.995 57.7535C20.6407 56.9463 20.9253 55.9277 20.9253 54.7762H19.2568C19.2568 55.6536 19.043 56.2724 18.6921 56.7111L19.995 57.7535ZM27.8376 67.217H27.0033V68.0513H27.8376V67.217ZM27.8376 48.9295V48.0952H27.0033V48.9295H27.8376ZM39.3708 48.9295H40.2051V48.0952H39.3708V48.9295ZM39.3708 51.5191V52.3534H40.2051V51.5191H39.3708ZM30.801 51.5191V50.6848H29.9667V51.5191H30.801ZM30.801 56.6984H29.9667V57.5327H30.801V56.6984ZM37.7689 56.6984H38.6032V55.8641H37.7689V56.6984ZM37.7689 59.2613V60.0956H38.6032V59.2613H37.7689ZM30.801 59.2613V58.427H29.9667V59.2613H30.801ZM30.801 64.6007H29.9667V65.435H30.801V64.6007ZM39.3708 64.6007H40.2051V63.7664H39.3708V64.6007ZM39.3708 67.217V68.0513H40.2051V67.217H39.3708ZM28.6719 67.217V48.9295H27.0033V67.217H28.6719ZM27.8376 49.7638H39.3708V48.0952H27.8376V49.7638ZM38.5365 48.9295V51.5191H40.2051V48.9295H38.5365ZM39.3708 50.6848H30.801V52.3534H39.3708V50.6848ZM29.9667 51.5191V56.6984H31.6353V51.5191H29.9667ZM30.801 57.5327H37.7689V55.8641H30.801V57.5327ZM36.9347 56.6984V59.2613H38.6032V56.6984H36.9347ZM37.7689 58.427H30.801V60.0956H37.7689V58.427ZM29.9667 59.2613V64.6007H31.6353V59.2613H29.9667ZM30.801 65.435H39.3708V63.7664H30.801V65.435ZM38.5365 64.6007V67.217H40.2051V64.6007H38.5365ZM39.3708 66.3828H27.8376V68.0513H39.3708V66.3828ZM43.9289 67.217H43.0946V68.0513H43.9289V67.217ZM43.9289 48.9295V48.0952H43.0946V48.9295H43.9289ZM55.4621 48.9295H56.2963V48.0952H55.4621V48.9295ZM55.4621 51.5191V52.3534H56.2963V51.5191H55.4621ZM46.8923 51.5191V50.6848H46.058V51.5191H46.8923ZM46.8923 56.6984H46.058V57.5327H46.8923V56.6984ZM53.8602 56.6984H54.6945V55.8641H53.8602V56.6984ZM53.8602 59.2613V60.0956H54.6945V59.2613H53.8602ZM46.8923 59.2613V58.427H46.058V59.2613H46.8923ZM46.8923 64.6007H46.058V65.435H46.8923V64.6007ZM55.4621 64.6007H56.2963V63.7664H55.4621V64.6007ZM55.4621 67.217V68.0513H56.2963V67.217H55.4621ZM44.7632 67.217V48.9295H43.0946V67.217H44.7632ZM43.9289 49.7638H55.4621V48.0952H43.9289V49.7638ZM54.6278 48.9295V51.5191H56.2963V48.9295H54.6278ZM55.4621 50.6848H46.8923V52.3534H55.4621V50.6848ZM46.058 51.5191V56.6984H47.7266V51.5191H46.058ZM46.8923 57.5327H53.8602V55.8641H46.8923V57.5327ZM53.0259 56.6984V59.2613H54.6945V56.6984H53.0259ZM53.8602 58.427H46.8923V60.0956H53.8602V58.427ZM46.058 59.2613V64.6007H47.7266V59.2613H46.058ZM46.8923 65.435H55.4621V63.7664H46.8923V65.435ZM54.6278 64.6007V67.217H56.2963V64.6007H54.6278ZM55.4621 66.3828H43.9289V68.0513H55.4621V66.3828ZM60.0202 67.217H59.1859V68.0513H60.0202V67.217ZM60.0202 48.9295V48.0952H59.1859V48.9295H60.0202ZM71.5533 48.9295H72.3876V48.0952H71.5533V48.9295ZM71.5533 51.5191V52.3534H72.3876V51.5191H71.5533ZM62.9836 51.5191V50.6848H62.1493V51.5191H62.9836ZM62.9836 56.6984H62.1493V57.5327H62.9836V56.6984ZM69.9515 56.6984H70.7858V55.8641H69.9515V56.6984ZM69.9515 59.2613V60.0956H70.7858V59.2613H69.9515ZM62.9836 59.2613V58.427H62.1493V59.2613H62.9836ZM62.9836 64.6007H62.1493V65.435H62.9836V64.6007ZM71.5533 64.6007H72.3876V63.7664H71.5533V64.6007ZM71.5533 67.217V68.0513H72.3876V67.217H71.5533ZM60.8545 67.217V48.9295H59.1859V67.217H60.8545ZM60.0202 49.7638H71.5533V48.0952H60.0202V49.7638ZM70.7191 48.9295V51.5191H72.3876V48.9295H70.7191ZM71.5533 50.6848H62.9836V52.3534H71.5533V50.6848ZM62.1493 51.5191V56.6984H63.8178V51.5191H62.1493ZM62.9836 57.5327H69.9515V55.8641H62.9836V57.5327ZM69.1172 56.6984V59.2613H70.7858V56.6984H69.1172ZM69.9515 58.427H62.9836V60.0956H69.9515V58.427ZM62.1493 59.2613V64.6007H63.8178V59.2613H62.1493ZM62.9836 65.435H71.5533V63.7664H62.9836V65.435ZM70.7191 64.6007V67.217H72.3876V64.6007H70.7191ZM71.5533 66.3828H60.0202V68.0513H71.5533V66.3828ZM74.5363 67.217L73.7263 67.0172L73.4712 68.0513H74.5363V67.217ZM79.0481 48.9295V48.0952H78.3947L78.2382 48.7297L79.0481 48.9295ZM84.9482 48.9295L85.7579 48.7285L85.6008 48.0952H84.9482V48.9295ZM89.4867 67.217V68.0513H90.5534L90.2965 67.0161L89.4867 67.217ZM86.4967 67.217L85.6876 67.4207L85.8463 68.0513H86.4967V67.217ZM85.5089 63.2926L86.3179 63.0889L86.1592 62.4583H85.5089V63.2926ZM78.4875 63.2926V62.4583H77.8372L77.6785 63.0889L78.4875 63.2926ZM77.4997 67.217V68.0513H78.15L78.3088 67.4207L77.4997 67.217ZM81.3441 51.4123V50.578H80.6895L80.5338 51.2138L81.3441 51.4123ZM79.0748 60.6762L78.2645 60.4777L78.0115 61.5105H79.0748V60.6762ZM84.9215 60.6762V61.5105H85.9819L85.7324 60.4799L84.9215 60.6762ZM82.679 51.4123L83.4898 51.216L83.3354 50.578H82.679V51.4123ZM75.3463 67.4169L79.8581 49.1293L78.2382 48.7297L73.7263 67.0172L75.3463 67.4169ZM79.0481 49.7638H84.9482V48.0952H79.0481V49.7638ZM84.1385 49.1304L88.677 67.418L90.2965 67.0161L85.7579 48.7285L84.1385 49.1304ZM89.4867 66.3828H86.4967V68.0513H89.4867V66.3828ZM87.3057 67.0134L86.3179 63.0889L84.6998 63.4962L85.6876 67.4207L87.3057 67.0134ZM85.5089 62.4583H78.4875V64.1268H85.5089V62.4583ZM77.6785 63.0889L76.6907 67.0134L78.3088 67.4207L79.2966 63.4962L77.6785 63.0889ZM77.4997 66.3828H74.5363V68.0513H77.4997V66.3828ZM80.5338 51.2138L78.2645 60.4777L79.8852 60.8747L82.1544 51.6108L80.5338 51.2138ZM79.0748 61.5105H84.9215V59.842H79.0748V61.5105ZM85.7324 60.4799L83.4898 51.216L81.8681 51.6086L84.1107 60.8725L85.7324 60.4799ZM82.679 50.578H81.3441V52.2466H82.679V50.578ZM93.8615 65.2948L93.1583 65.7439L93.1622 65.7498L93.8615 65.2948ZM93.8882 50.7983L94.5797 51.2651L94.5824 51.2611L93.8882 50.7983ZM104.54 49.3033L105.374 49.3403L105.405 48.6484L104.73 48.4909L104.54 49.3033ZM104.434 51.706L104.288 52.5274L105.225 52.694L105.267 51.743L104.434 51.706ZM96.371 52.7205L97.0853 53.1517L97.0888 53.1458L96.371 52.7205ZM96.3444 63.4527L95.6208 63.8681L95.6242 63.874L96.3444 63.4527ZM104.434 64.4672L105.267 64.44L105.236 63.491L104.299 63.6438L104.434 64.4672ZM104.514 66.9234L104.688 67.7393L105.37 67.5935L105.348 66.8962L104.514 66.9234ZM99.3077 66.6764C96.7664 66.6764 95.2996 65.9754 94.5608 64.8399L93.1622 65.7498C94.3456 67.5688 96.5097 68.345 99.3077 68.345V66.6764ZM94.5647 64.8458C93.7554 63.5785 93.2809 61.3529 93.2809 58.0065H91.6123C91.6123 61.4234 92.081 64.0567 93.1584 65.7439L94.5647 64.8458ZM93.2809 58.0065C93.2809 54.6569 93.7658 52.4709 94.5797 51.2651L93.1967 50.3315C92.0884 51.9734 91.6123 54.5929 91.6123 58.0065H93.2809ZM94.5824 51.2611C95.3189 50.1564 96.7794 49.4701 99.3077 49.4701V47.8015C96.5323 47.8015 94.3798 48.557 93.194 50.3355L94.5824 51.2611ZM99.3077 49.4701C100.815 49.4701 102.494 49.682 104.351 50.1157L104.73 48.4909C102.777 48.0346 100.969 47.8015 99.3077 47.8015V49.4701ZM103.707 49.2662L103.6 51.669L105.267 51.743L105.374 49.3403L103.707 49.2662ZM104.58 50.8846C102.93 50.5914 101.28 50.4446 99.6281 50.4446V52.1131C101.18 52.1131 102.733 52.2511 104.288 52.5274L104.58 50.8846ZM99.6281 50.4446C97.8725 50.4446 96.4332 50.9792 95.6533 52.2952L97.0888 53.1458C97.448 52.5396 98.1801 52.1131 99.6281 52.1131V50.4446ZM95.6568 52.2893C95.2921 52.8934 95.0562 53.6974 94.9064 54.6383C94.7548 55.5907 94.6825 56.7435 94.6825 58.0866H96.351C96.351 56.7956 96.4211 55.737 96.5542 54.9007C96.6892 54.0529 96.8805 53.4909 97.0853 53.1517L95.6568 52.2893ZM94.6825 58.0866C94.6825 59.4204 94.7525 60.5671 94.8991 61.5176C95.0441 62.4574 95.2717 63.2599 95.6208 63.8681L97.0679 63.0374C96.8653 62.6845 96.6791 62.1121 96.5482 61.2632C96.4189 60.4249 96.351 59.3692 96.351 58.0866H94.6825ZM95.6242 63.874C96.3888 65.1811 97.8277 65.702 99.5747 65.702V64.0334C98.1181 64.0334 97.4034 63.611 97.0645 63.0315L95.6242 63.874ZM99.5747 65.702C101.223 65.702 102.888 65.5646 104.568 65.2906L104.299 63.6438C102.705 63.9038 101.13 64.0334 99.5747 64.0334V65.702ZM103.6 64.4944L103.68 66.9506L105.348 66.8962L105.267 64.44L103.6 64.4944ZM104.339 66.1075C102.555 66.4885 100.879 66.6764 99.3077 66.6764V68.345C101.011 68.345 102.806 68.1413 104.688 67.7393L104.339 66.1075ZM119.89 67.217H119.055V68.0513H119.89V67.217ZM119.89 59.3147H120.724V58.4804H119.89V59.3147ZM111.987 59.3147V58.4804H111.153V59.3147H111.987ZM111.987 67.217V68.0513H112.822V67.217H111.987ZM109.024 67.217H108.19V68.0513H109.024V67.217ZM109.024 48.9295V48.0952H108.19V48.9295H109.024ZM111.987 48.9295H112.822V48.0952H111.987V48.9295ZM111.987 56.7251H111.153V57.5593H111.987V56.7251ZM119.89 56.7251V57.5593H120.724V56.7251H119.89ZM119.89 48.9295V48.0952H119.055V48.9295H119.89ZM122.88 48.9295H123.714V48.0952H122.88V48.9295ZM122.88 67.217V68.0513H123.714V67.217H122.88ZM120.724 67.217V59.3147H119.055V67.217H120.724ZM119.89 58.4804H111.987V60.149H119.89V58.4804ZM111.153 59.3147V67.217H112.822V59.3147H111.153ZM111.987 66.3828H109.024V68.0513H111.987V66.3828ZM109.858 67.217V48.9295H108.19V67.217H109.858ZM109.024 49.7638H111.987V48.0952H109.024V49.7638ZM111.153 48.9295V56.7251H112.822V48.9295H111.153ZM111.987 57.5593H119.89V55.8908H111.987V57.5593ZM120.724 56.7251V48.9295H119.055V56.7251H120.724ZM119.89 49.7638H122.88V48.0952H119.89V49.7638ZM122.046 48.9295V67.217H123.714V48.9295H122.046ZM122.88 66.3828H119.89V68.0513H122.88V66.3828Z" fill="black"/>
</g>
<defs>
<clipPath id="clip0_40_215">
<rect width="132.847" height="146" fill="white"/>
</clipPath>
</defs>
</svg>
