<svg width="101" height="101" viewBox="0 0 101 101" fill="none" xmlns="http://www.w3.org/2000/svg">
<path d="M16.4042 75.2361V74.3704H15.5385H0.865714V3.95898H100.134V74.3704H38.2089H37.8503L37.5967 74.624L16.4042 95.8167V75.2361Z" fill="#F3EE1E" stroke="#4D4D4D" stroke-width="1.73143"/>
<path d="M13.517 42.0822V46.5886H11.467V33.9376H16.2689C19.1253 33.9376 20.5536 35.2796 20.5536 37.9637C20.5536 39.7613 19.8641 40.9803 18.4851 41.6205L20.572 46.5886H18.3189L16.4905 42.0822H13.517ZM18.4482 37.9822C18.4482 36.4678 17.7217 35.7106 16.2689 35.7106H13.517V40.3092H16.3058C17.0445 40.3092 17.5863 40.0999 17.931 39.6813C18.2758 39.2504 18.4482 38.684 18.4482 37.9822ZM23.8071 46.5886V33.9376H31.7855V35.729H25.8571V39.3119H30.6774V41.0849H25.8571V44.7786H31.7855V46.5886H23.8071ZM34.9387 46.5886V33.9376H42.9171V35.729H36.9887V39.3119H41.809V41.0849H36.9887V44.7786H42.9171V46.5886H34.9387ZM46.0704 46.5886V33.9376H54.0488V35.729H48.1204V39.3119H52.9407V41.0849H48.1204V44.7786H54.0488V46.5886H46.0704ZM56.1123 46.5886L59.2335 33.9376H63.3151L66.4547 46.5886H64.3863L63.7029 43.8737H58.8457L58.1624 46.5886H56.1123ZM60.8218 35.6552L59.252 42.0638H63.2966L61.7453 35.6552H60.8218ZM73.2487 46.7917C71.4019 46.7917 70.146 46.2808 69.4811 45.2588C68.8286 44.2369 68.5023 42.5563 68.5023 40.2169C68.5023 37.8776 68.8347 36.2154 69.4996 35.2304C70.1645 34.2331 71.4142 33.7344 73.2487 33.7344C74.3445 33.7344 75.5512 33.8883 76.8686 34.1962L76.7947 35.8583C75.6866 35.6613 74.5785 35.5628 73.4704 35.5628C72.3622 35.5628 71.6112 35.8953 71.2172 36.5601C70.8232 37.2127 70.6262 38.4501 70.6262 40.2723C70.6262 42.0822 70.817 43.3196 71.1987 43.9845C71.5804 44.637 72.3253 44.9633 73.4334 44.9633C74.5415 44.9633 75.662 44.871 76.7947 44.6863L76.8501 46.3854C75.5819 46.6563 74.3815 46.7917 73.2487 46.7917ZM87.487 46.5886V41.1219H82.0203V46.5886H79.9703V33.9376H82.0203V39.3304H87.487V33.9376H89.5555V46.5886H87.487Z" fill="#4D4D4D"/>
<path d="M13.517 42.0822V41.5051H12.9399V42.0822H13.517ZM13.517 46.5886V47.1657H14.0942V46.5886H13.517ZM11.467 46.5886H10.8899V47.1657H11.467V46.5886ZM11.467 33.9376V33.3604H10.8899V33.9376H11.467ZM18.4851 41.6205L18.242 41.097L17.7376 41.3313L17.953 41.844L18.4851 41.6205ZM20.572 46.5886V47.1657H21.4405L21.1041 46.365L20.572 46.5886ZM18.3189 46.5886L17.7841 46.8055L17.9302 47.1657H18.3189V46.5886ZM16.4905 42.0822L17.0253 41.8652L16.8792 41.5051H16.4905V42.0822ZM13.517 35.7106V35.1334H12.9399V35.7106H13.517ZM13.517 40.3092H12.9399V40.8864H13.517V40.3092ZM17.931 39.6813L18.3766 40.0482L18.3817 40.0419L17.931 39.6813ZM12.9399 42.0822V46.5886H14.0942V42.0822H12.9399ZM13.517 46.0114H11.467V47.1657H13.517V46.0114ZM12.0442 46.5886V33.9376H10.8899V46.5886H12.0442ZM11.467 34.5147H16.2689V33.3604H11.467V34.5147ZM16.2689 34.5147C17.6168 34.5147 18.5203 34.8321 19.0872 35.3647C19.6473 35.891 19.9764 36.7202 19.9764 37.9637H21.1307C21.1307 36.5232 20.7457 35.3393 19.8776 34.5235C19.0162 33.7141 17.7774 33.3604 16.2689 33.3604V34.5147ZM19.9764 37.9637C19.9764 38.7906 19.8178 39.4404 19.5341 39.942C19.2538 40.4375 18.8321 40.8231 18.242 41.097L18.7281 42.144C19.5171 41.7777 20.1296 41.2337 20.5388 40.5103C20.9446 39.7929 21.1307 38.9345 21.1307 37.9637H19.9764ZM17.953 41.844L20.0399 46.8121L21.1041 46.365L19.0172 41.397L17.953 41.844ZM20.572 46.0114H18.3189V47.1657H20.572V46.0114ZM18.8537 46.3716L17.0253 41.8652L15.9557 42.2992L17.7841 46.8055L18.8537 46.3716ZM16.4905 41.5051H13.517V42.6594H16.4905V41.5051ZM19.0253 37.9822C19.0253 37.1419 18.8241 36.4046 18.3198 35.8789C17.8112 35.3488 17.0905 35.1334 16.2689 35.1334V36.2877C16.9001 36.2877 17.269 36.451 17.4869 36.678C17.709 36.9096 17.871 37.3081 17.871 37.9822H19.0253ZM16.2689 35.1334H13.517V36.2877H16.2689V35.1334ZM12.9399 35.7106V40.3092H14.0942V35.7106H12.9399ZM13.517 40.8864H16.3058V39.7321H13.517V40.8864ZM16.3058 40.8864C17.1509 40.8864 17.8861 40.6437 18.3765 40.0482L17.4855 39.3144C17.2865 39.5561 16.9382 39.7321 16.3058 39.7321V40.8864ZM18.3817 40.0419C18.8284 39.4835 19.0253 38.7788 19.0253 37.9822H17.871C17.871 38.5892 17.7232 39.0173 17.4804 39.3208L18.3817 40.0419ZM23.8071 46.5886H23.2299V47.1657H23.8071V46.5886ZM23.8071 33.9376V33.3604H23.2299V33.9376H23.8071ZM31.7855 33.9376H32.3626V33.3604H31.7855V33.9376ZM31.7855 35.729V36.3062H32.3626V35.729H31.7855ZM25.8571 35.729V35.1519H25.2799V35.729H25.8571ZM25.8571 39.3119H25.2799V39.8891H25.8571V39.3119ZM30.6774 39.3119H31.2545V38.7348H30.6774V39.3119ZM30.6774 41.0849V41.6621H31.2545V41.0849H30.6774ZM25.8571 41.0849V40.5078H25.2799V41.0849H25.8571ZM25.8571 44.7786H25.2799V45.3558H25.8571V44.7786ZM31.7855 44.7786H32.3626V44.2015H31.7855V44.7786ZM31.7855 46.5886V47.1657H32.3626V46.5886H31.7855ZM24.3842 46.5886V33.9376H23.2299V46.5886H24.3842ZM23.8071 34.5147H31.7855V33.3604H23.8071V34.5147ZM31.2083 33.9376V35.729H32.3626V33.9376H31.2083ZM31.7855 35.1519H25.8571V36.3062H31.7855V35.1519ZM25.2799 35.729V39.3119H26.4342V35.729H25.2799ZM25.8571 39.8891H30.6774V38.7348H25.8571V39.8891ZM30.1002 39.3119V41.0849H31.2545V39.3119H30.1002ZM30.6774 40.5078H25.8571V41.6621H30.6774V40.5078ZM25.2799 41.0849V44.7786H26.4342V41.0849H25.2799ZM25.8571 45.3558H31.7855V44.2015H25.8571V45.3558ZM31.2083 44.7786V46.5886H32.3626V44.7786H31.2083ZM31.7855 46.0114H23.8071V47.1657H31.7855V46.0114ZM34.9387 46.5886H34.3616V47.1657H34.9387V46.5886ZM34.9387 33.9376V33.3604H34.3616V33.9376H34.9387ZM42.9171 33.9376H43.4943V33.3604H42.9171V33.9376ZM42.9171 35.729V36.3062H43.4943V35.729H42.9171ZM36.9887 35.729V35.1519H36.4116V35.729H36.9887ZM36.9887 39.3119H36.4116V39.8891H36.9887V39.3119ZM41.809 39.3119H42.3862V38.7348H41.809V39.3119ZM41.809 41.0849V41.6621H42.3862V41.0849H41.809ZM36.9887 41.0849V40.5078H36.4116V41.0849H36.9887ZM36.9887 44.7786H36.4116V45.3558H36.9887V44.7786ZM42.9171 44.7786H43.4943V44.2015H42.9171V44.7786ZM42.9171 46.5886V47.1657H43.4943V46.5886H42.9171ZM35.5159 46.5886V33.9376H34.3616V46.5886H35.5159ZM34.9387 34.5147H42.9171V33.3604H34.9387V34.5147ZM42.34 33.9376V35.729H43.4943V33.9376H42.34ZM42.9171 35.1519H36.9887V36.3062H42.9171V35.1519ZM36.4116 35.729V39.3119H37.5659V35.729H36.4116ZM36.9887 39.8891H41.809V38.7348H36.9887V39.8891ZM41.2319 39.3119V41.0849H42.3862V39.3119H41.2319ZM41.809 40.5078H36.9887V41.6621H41.809V40.5078ZM36.4116 41.0849V44.7786H37.5659V41.0849H36.4116ZM36.9887 45.3558H42.9171V44.2015H36.9887V45.3558ZM42.34 44.7786V46.5886H43.4943V44.7786H42.34ZM42.9171 46.0114H34.9387V47.1657H42.9171V46.0114ZM46.0704 46.5886H45.4932V47.1657H46.0704V46.5886ZM46.0704 33.9376V33.3604H45.4932V33.9376H46.0704ZM54.0488 33.9376H54.6259V33.3604H54.0488V33.9376ZM54.0488 35.729V36.3062H54.6259V35.729H54.0488ZM48.1204 35.729V35.1519H47.5432V35.729H48.1204ZM48.1204 39.3119H47.5432V39.8891H48.1204V39.3119ZM52.9407 39.3119H53.5178V38.7348H52.9407V39.3119ZM52.9407 41.0849V41.6621H53.5178V41.0849H52.9407ZM48.1204 41.0849V40.5078H47.5432V41.0849H48.1204ZM48.1204 44.7786H47.5432V45.3558H48.1204V44.7786ZM54.0488 44.7786H54.6259V44.2015H54.0488V44.7786ZM54.0488 46.5886V47.1657H54.6259V46.5886H54.0488ZM46.6475 46.5886V33.9376H45.4932V46.5886H46.6475ZM46.0704 34.5147H54.0488V33.3604H46.0704V34.5147ZM53.4716 33.9376V35.729H54.6259V33.9376H53.4716ZM54.0488 35.1519H48.1204V36.3062H54.0488V35.1519ZM47.5432 35.729V39.3119H48.6975V35.729H47.5432ZM48.1204 39.8891H52.9407V38.7348H48.1204V39.8891ZM52.3635 39.3119V41.0849H53.5178V39.3119H52.3635ZM52.9407 40.5078H48.1204V41.6621H52.9407V40.5078ZM47.5432 41.0849V44.7786H48.6975V41.0849H47.5432ZM48.1204 45.3558H54.0488V44.2015H48.1204V45.3558ZM53.4716 44.7786V46.5886H54.6259V44.7786H53.4716ZM54.0488 46.0114H46.0704V47.1657H54.0488V46.0114ZM56.1124 46.5886L55.552 46.4503L55.3755 47.1657H56.1124V46.5886ZM59.2335 33.9376V33.3604H58.7815L58.6732 33.7993L59.2335 33.9376ZM63.3151 33.9376L63.8752 33.7986L63.7665 33.3604H63.3151V33.9376ZM66.4548 46.5886V47.1657H67.1926L67.0149 46.4495L66.4548 46.5886ZM64.3863 46.5886L63.8266 46.7294L63.9364 47.1657H64.3863V46.5886ZM63.7029 43.8737L64.2626 43.7328L64.1528 43.2965H63.7029V43.8737ZM58.8457 43.8737V43.2965H58.3958L58.286 43.7328L58.8457 43.8737ZM58.1624 46.5886V47.1657H58.6122L58.722 46.7294L58.1624 46.5886ZM60.8218 35.6552V35.078H60.369L60.2613 35.5179L60.8218 35.6552ZM59.252 42.0638L58.6914 41.9264L58.5164 42.6409H59.252V42.0638ZM63.2966 42.0638V42.6409H64.0301L63.8576 41.928L63.2966 42.0638ZM61.7453 35.6552L62.3062 35.5194L62.1994 35.078H61.7453V35.6552ZM56.6727 46.7268L59.7939 34.0758L58.6732 33.7993L55.552 46.4503L56.6727 46.7268ZM59.2335 34.5147H63.3151V33.3604H59.2335V34.5147ZM62.7549 34.0766L65.8946 46.7276L67.0149 46.4495L63.8752 33.7986L62.7549 34.0766ZM66.4548 46.0114H64.3863V47.1657H66.4548V46.0114ZM64.946 46.4477L64.2626 43.7328L63.1432 44.0146L63.8266 46.7294L64.946 46.4477ZM63.7029 43.2965H58.8457V44.4508H63.7029V43.2965ZM58.286 43.7328L57.6027 46.4477L58.722 46.7294L59.4054 44.0146L58.286 43.7328ZM58.1624 46.0114H56.1124V47.1657H58.1624V46.0114ZM60.2613 35.5179L58.6914 41.9264L59.8126 42.2011L61.3824 35.7925L60.2613 35.5179ZM59.252 42.6409H63.2966V41.4866H59.252V42.6409ZM63.8576 41.928L62.3062 35.5194L61.1843 35.791L62.7357 42.1996L63.8576 41.928ZM61.7453 35.078H60.8218V36.2323H61.7453V35.078ZM69.4811 45.2588L68.9947 45.5694L68.9974 45.5736L69.4811 45.2588ZM69.4996 35.2304L69.978 35.5533L69.9798 35.5505L69.4996 35.2304ZM76.8686 34.1962L77.4451 34.2218L77.4664 33.7431L76.9999 33.6341L76.8686 34.1962ZM76.7947 35.8583L76.6937 36.4266L77.342 36.5418L77.3713 35.8839L76.7947 35.8583ZM71.2172 36.5601L71.7113 36.8584L71.7137 36.8544L71.2172 36.5601ZM71.1987 43.9845L70.6982 44.2718L70.7005 44.2759L71.1987 43.9845ZM76.7947 44.6863L77.3715 44.6675L77.3501 44.011L76.7018 44.1167L76.7947 44.6863ZM76.8501 46.3854L76.9707 46.9498L77.4427 46.849L77.4269 46.3666L76.8501 46.3854ZM73.2487 46.2146C71.4907 46.2146 70.476 45.7296 69.9649 44.9441L68.9974 45.5736C69.816 46.8319 71.3131 47.3689 73.2487 47.3689V46.2146ZM69.9676 44.9482C69.4078 44.0715 69.0795 42.5319 69.0795 40.2169H67.9252C67.9252 42.5807 68.2494 44.4023 68.9947 45.5694L69.9676 44.9482ZM69.0795 40.2169C69.0795 37.8997 69.4149 36.3874 69.978 35.5533L69.0212 34.9075C68.2546 36.0433 67.9252 37.8554 67.9252 40.2169H69.0795ZM69.9798 35.5505C70.4893 34.7863 71.4997 34.3116 73.2487 34.3116V33.1573C71.3287 33.1573 69.8397 33.6799 69.0194 34.9102L69.9798 35.5505ZM73.2487 34.3116C74.2915 34.3116 75.4533 34.4582 76.7373 34.7582L76.9999 33.6341C75.649 33.3185 74.3976 33.1573 73.2487 33.1573V34.3116ZM76.292 34.1705L76.2181 35.8327L77.3713 35.8839L77.4451 34.2218L76.292 34.1705ZM76.8957 35.2901C75.7548 35.0873 74.6129 34.9857 73.4704 34.9857V36.14C74.5441 36.14 75.6184 36.2354 76.6937 36.4266L76.8957 35.2901ZM73.4704 34.9857C72.2558 34.9857 71.2602 35.3555 70.7207 36.2659L71.7137 36.8544C71.9622 36.435 72.4687 36.14 73.4704 36.14V34.9857ZM70.7231 36.2618C70.4708 36.6797 70.3076 37.2359 70.204 37.8868C70.0991 38.5457 70.0491 39.3432 70.0491 40.2723H71.2033C71.2033 39.3792 71.2518 38.6469 71.3439 38.0683C71.4373 37.4819 71.5696 37.0931 71.7113 36.8584L70.7231 36.2618ZM70.0491 40.2723C70.0491 41.195 70.0975 41.9883 70.1989 42.6458C70.2992 43.2959 70.4567 43.8511 70.6982 44.2718L71.6992 43.6972C71.5591 43.453 71.4303 43.0571 71.3397 42.4698C71.2503 41.8899 71.2033 41.1596 71.2033 40.2723H70.0491ZM70.7005 44.2759C71.2294 45.1801 72.2248 45.5405 73.4334 45.5405V44.3862C72.4258 44.3862 71.9314 44.094 71.6969 43.6931L70.7005 44.2759ZM73.4334 45.5405C74.5737 45.5405 75.7252 45.4454 76.8876 45.2559L76.7018 44.1167C75.5987 44.2965 74.5093 44.3862 73.4334 44.3862V45.5405ZM76.2179 44.7051L76.2733 46.4042L77.4269 46.3666L77.3715 44.6675L76.2179 44.7051ZM76.7296 45.821C75.4954 46.0846 74.3356 46.2146 73.2487 46.2146V47.3689C74.4273 47.3689 75.6684 47.228 76.9707 46.9498L76.7296 45.821ZM87.487 46.5886H86.9098V47.1657H87.487V46.5886ZM87.487 41.1219H88.0641V40.5447H87.487V41.1219ZM82.0203 41.1219V40.5447H81.4431V41.1219H82.0203ZM82.0203 46.5886V47.1657H82.5974V46.5886H82.0203ZM79.9703 46.5886H79.3931V47.1657H79.9703V46.5886ZM79.9703 33.9376V33.3604H79.3931V33.9376H79.9703ZM82.0203 33.9376H82.5974V33.3604H82.0203V33.9376ZM82.0203 39.3304H81.4431V39.9076H82.0203V39.3304ZM87.487 39.3304V39.9076H88.0641V39.3304H87.487ZM87.487 33.9376V33.3604H86.9098V33.9376H87.487ZM89.5555 33.9376H90.1326V33.3604H89.5555V33.9376ZM89.5555 46.5886V47.1657H90.1326V46.5886H89.5555ZM88.0641 46.5886V41.1219H86.9098V46.5886H88.0641ZM87.487 40.5447H82.0203V41.699H87.487V40.5447ZM81.4431 41.1219V46.5886H82.5974V41.1219H81.4431ZM82.0203 46.0114H79.9703V47.1657H82.0203V46.0114ZM80.5474 46.5886V33.9376H79.3931V46.5886H80.5474ZM79.9703 34.5147H82.0203V33.3604H79.9703V34.5147ZM81.4431 33.9376V39.3304H82.5974V33.9376H81.4431ZM82.0203 39.9076H87.487V38.7533H82.0203V39.9076ZM88.0641 39.3304V33.9376H86.9098V39.3304H88.0641ZM87.487 34.5147H89.5555V33.3604H87.487V34.5147ZM88.9783 33.9376V46.5886H90.1326V33.9376H88.9783ZM89.5555 46.0114H87.487V47.1657H89.5555V46.0114Z" fill="#212121"/>
</svg>
