<svg width="101" height="101" viewBox="0 0 101 101" fill="none" xmlns="http://www.w3.org/2000/svg">
<g clip-path="url(#clip0_36_125)">
<path d="M16.4042 72.1428V71.2771H15.5385H0.865714V0.865714H100.134V71.2771H38.2089H37.8503L37.5967 71.5307L16.4042 92.7234V72.1428Z" fill="#F3EE1E" stroke="#DBD61B" stroke-width="1.73143"/>
<path d="M13.517 38.0423V42.5486H11.467V29.8976H16.2689C19.1253 29.8976 20.5536 31.2397 20.5536 33.9238C20.5536 35.7214 19.8641 36.9403 18.4851 37.5805L20.572 42.5486H18.3189L16.4905 38.0423H13.517ZM18.4482 33.9422C18.4482 32.4278 17.7217 31.6706 16.2689 31.6706H13.517V36.2693H16.3058C17.0445 36.2693 17.5863 36.06 17.931 35.6413C18.2758 35.2104 18.4482 34.644 18.4482 33.9422ZM23.8071 42.5486V29.8976H31.7855V31.6891H25.8571V35.272H30.6774V37.0449H25.8571V40.7387H31.7855V42.5486H23.8071ZM34.9387 42.5486V29.8976H42.9171V31.6891H36.9887V35.272H41.809V37.0449H36.9887V40.7387H42.9171V42.5486H34.9387ZM46.0704 42.5486V29.8976H54.0488V31.6891H48.1204V35.272H52.9407V37.0449H48.1204V40.7387H54.0488V42.5486H46.0704ZM56.1123 42.5486L59.2335 29.8976H63.3151L66.4547 42.5486H64.3863L63.7029 39.8337H58.8457L58.1624 42.5486H56.1123ZM60.8218 31.6152L59.252 38.0238H63.2966L61.7453 31.6152H60.8218ZM73.2487 42.7517C71.4019 42.7517 70.146 42.2408 69.4811 41.2188C68.8286 40.1969 68.5023 38.5163 68.5023 36.1769C68.5023 33.8376 68.8347 32.1754 69.4996 31.1904C70.1645 30.1931 71.4142 29.6945 73.2487 29.6945C74.3445 29.6945 75.5512 29.8484 76.8686 30.1562L76.7947 31.8183C75.6866 31.6213 74.5785 31.5228 73.4704 31.5228C72.3622 31.5228 71.6112 31.8553 71.2172 32.5201C70.8232 33.1727 70.6262 34.4101 70.6262 36.2323C70.6262 38.0423 70.817 39.2796 71.1987 39.9445C71.5804 40.5971 72.3253 40.9233 73.4334 40.9233C74.5415 40.9233 75.662 40.831 76.7947 40.6463L76.8501 42.3454C75.5819 42.6163 74.3815 42.7517 73.2487 42.7517ZM87.487 42.5486V37.0819H82.0203V42.5486H79.9703V29.8976H82.0203V35.2904H87.487V29.8976H89.5555V42.5486H87.487Z" fill="#4D4D4D"/>
<path d="M13.517 38.0423V37.4651H12.9399V38.0423H13.517ZM13.517 42.5486V43.1257H14.0942V42.5486H13.517ZM11.467 42.5486H10.8899V43.1257H11.467V42.5486ZM11.467 29.8976V29.3205H10.8899V29.8976H11.467ZM18.4851 37.5805L18.242 37.0571L17.7376 37.2913L17.953 37.8041L18.4851 37.5805ZM20.572 42.5486V43.1257H21.4405L21.1041 42.3251L20.572 42.5486ZM18.3189 42.5486L17.7841 42.7656L17.9302 43.1257H18.3189V42.5486ZM16.4905 38.0423L17.0253 37.8253L16.8792 37.4651H16.4905V38.0423ZM13.517 31.6706V31.0935H12.9399V31.6706H13.517ZM13.517 36.2693H12.9399V36.8464H13.517V36.2693ZM17.931 35.6413L18.3766 36.0083L18.3817 36.0019L17.931 35.6413ZM12.9399 38.0423V42.5486H14.0942V38.0423H12.9399ZM13.517 41.9714H11.467V43.1257H13.517V41.9714ZM12.0442 42.5486V29.8976H10.8899V42.5486H12.0442ZM11.467 30.4748H16.2689V29.3205H11.467V30.4748ZM16.2689 30.4748C17.6168 30.4748 18.5203 30.7921 19.0872 31.3247C19.6473 31.8511 19.9764 32.6802 19.9764 33.9238H21.1307C21.1307 32.4832 20.7457 31.2993 19.8776 30.4836C19.0162 29.6742 17.7774 29.3205 16.2689 29.3205V30.4748ZM19.9764 33.9238C19.9764 34.7506 19.8178 35.4004 19.5341 35.902C19.2538 36.3975 18.8321 36.7831 18.242 37.0571L18.7281 38.104C19.5171 37.7377 20.1296 37.1938 20.5388 36.4703C20.9446 35.7529 21.1307 34.8945 21.1307 33.9238H19.9764ZM17.953 37.8041L20.0399 42.7721L21.1041 42.3251L19.0172 37.357L17.953 37.8041ZM20.572 41.9714H18.3189V43.1257H20.572V41.9714ZM18.8537 42.3316L17.0253 37.8253L15.9557 38.2592L17.7841 42.7656L18.8537 42.3316ZM16.4905 37.4651H13.517V38.6194H16.4905V37.4651ZM19.0253 33.9422C19.0253 33.1019 18.8241 32.3646 18.3198 31.839C17.8112 31.3088 17.0905 31.0935 16.2689 31.0935V32.2477C16.9001 32.2477 17.269 32.411 17.4869 32.6381C17.709 32.8696 17.871 33.2681 17.871 33.9422H19.0253ZM16.2689 31.0935H13.517V32.2477H16.2689V31.0935ZM12.9399 31.6706V36.2693H14.0942V31.6706H12.9399ZM13.517 36.8464H16.3058V35.6921H13.517V36.8464ZM16.3058 36.8464C17.1509 36.8464 17.8861 36.6038 18.3765 36.0082L17.4855 35.2744C17.2865 35.5162 16.9382 35.6921 16.3058 35.6921V36.8464ZM18.3817 36.0019C18.8284 35.4435 19.0253 34.7389 19.0253 33.9422H17.871C17.871 34.5492 17.7232 34.9773 17.4804 35.2808L18.3817 36.0019ZM23.8071 42.5486H23.2299V43.1257H23.8071V42.5486ZM23.8071 29.8976V29.3205H23.2299V29.8976H23.8071ZM31.7855 29.8976H32.3626V29.3205H31.7855V29.8976ZM31.7855 31.6891V32.2662H32.3626V31.6891H31.7855ZM25.8571 31.6891V31.1119H25.2799V31.6891H25.8571ZM25.8571 35.272H25.2799V35.8491H25.8571V35.272ZM30.6774 35.272H31.2545V34.6948H30.6774V35.272ZM30.6774 37.0449V37.6221H31.2545V37.0449H30.6774ZM25.8571 37.0449V36.4678H25.2799V37.0449H25.8571ZM25.8571 40.7387H25.2799V41.3158H25.8571V40.7387ZM31.7855 40.7387H32.3626V40.1615H31.7855V40.7387ZM31.7855 42.5486V43.1257H32.3626V42.5486H31.7855ZM24.3842 42.5486V29.8976H23.2299V42.5486H24.3842ZM23.8071 30.4748H31.7855V29.3205H23.8071V30.4748ZM31.2083 29.8976V31.6891H32.3626V29.8976H31.2083ZM31.7855 31.1119H25.8571V32.2662H31.7855V31.1119ZM25.2799 31.6891V35.272H26.4342V31.6891H25.2799ZM25.8571 35.8491H30.6774V34.6948H25.8571V35.8491ZM30.1002 35.272V37.0449H31.2545V35.272H30.1002ZM30.6774 36.4678H25.8571V37.6221H30.6774V36.4678ZM25.2799 37.0449V40.7387H26.4342V37.0449H25.2799ZM25.8571 41.3158H31.7855V40.1615H25.8571V41.3158ZM31.2083 40.7387V42.5486H32.3626V40.7387H31.2083ZM31.7855 41.9714H23.8071V43.1257H31.7855V41.9714ZM34.9387 42.5486H34.3616V43.1257H34.9387V42.5486ZM34.9387 29.8976V29.3205H34.3616V29.8976H34.9387ZM42.9171 29.8976H43.4943V29.3205H42.9171V29.8976ZM42.9171 31.6891V32.2662H43.4943V31.6891H42.9171ZM36.9887 31.6891V31.1119H36.4116V31.6891H36.9887ZM36.9887 35.272H36.4116V35.8491H36.9887V35.272ZM41.809 35.272H42.3862V34.6948H41.809V35.272ZM41.809 37.0449V37.6221H42.3862V37.0449H41.809ZM36.9887 37.0449V36.4678H36.4116V37.0449H36.9887ZM36.9887 40.7387H36.4116V41.3158H36.9887V40.7387ZM42.9171 40.7387H43.4943V40.1615H42.9171V40.7387ZM42.9171 42.5486V43.1257H43.4943V42.5486H42.9171ZM35.5159 42.5486V29.8976H34.3616V42.5486H35.5159ZM34.9387 30.4748H42.9171V29.3205H34.9387V30.4748ZM42.34 29.8976V31.6891H43.4943V29.8976H42.34ZM42.9171 31.1119H36.9887V32.2662H42.9171V31.1119ZM36.4116 31.6891V35.272H37.5659V31.6891H36.4116ZM36.9887 35.8491H41.809V34.6948H36.9887V35.8491ZM41.2319 35.272V37.0449H42.3862V35.272H41.2319ZM41.809 36.4678H36.9887V37.6221H41.809V36.4678ZM36.4116 37.0449V40.7387H37.5659V37.0449H36.4116ZM36.9887 41.3158H42.9171V40.1615H36.9887V41.3158ZM42.34 40.7387V42.5486H43.4943V40.7387H42.34ZM42.9171 41.9714H34.9387V43.1257H42.9171V41.9714ZM46.0704 42.5486H45.4932V43.1257H46.0704V42.5486ZM46.0704 29.8976V29.3205H45.4932V29.8976H46.0704ZM54.0488 29.8976H54.6259V29.3205H54.0488V29.8976ZM54.0488 31.6891V32.2662H54.6259V31.6891H54.0488ZM48.1204 31.6891V31.1119H47.5432V31.6891H48.1204ZM48.1204 35.272H47.5432V35.8491H48.1204V35.272ZM52.9407 35.272H53.5178V34.6948H52.9407V35.272ZM52.9407 37.0449V37.6221H53.5178V37.0449H52.9407ZM48.1204 37.0449V36.4678H47.5432V37.0449H48.1204ZM48.1204 40.7387H47.5432V41.3158H48.1204V40.7387ZM54.0488 40.7387H54.6259V40.1615H54.0488V40.7387ZM54.0488 42.5486V43.1257H54.6259V42.5486H54.0488ZM46.6475 42.5486V29.8976H45.4932V42.5486H46.6475ZM46.0704 30.4748H54.0488V29.3205H46.0704V30.4748ZM53.4716 29.8976V31.6891H54.6259V29.8976H53.4716ZM54.0488 31.1119H48.1204V32.2662H54.0488V31.1119ZM47.5432 31.6891V35.272H48.6975V31.6891H47.5432ZM48.1204 35.8491H52.9407V34.6948H48.1204V35.8491ZM52.3635 35.272V37.0449H53.5178V35.272H52.3635ZM52.9407 36.4678H48.1204V37.6221H52.9407V36.4678ZM47.5432 37.0449V40.7387H48.6975V37.0449H47.5432ZM48.1204 41.3158H54.0488V40.1615H48.1204V41.3158ZM53.4716 40.7387V42.5486H54.6259V40.7387H53.4716ZM54.0488 41.9714H46.0704V43.1257H54.0488V41.9714ZM56.1123 42.5486L55.552 42.4103L55.3755 43.1257H56.1123V42.5486ZM59.2335 29.8976V29.3205H58.7815L58.6732 29.7594L59.2335 29.8976ZM63.3151 29.8976L63.8752 29.7586L63.7665 29.3205H63.3151V29.8976ZM66.4547 42.5486V43.1257H67.1926L67.0149 42.4096L66.4547 42.5486ZM64.3863 42.5486L63.8266 42.6895L63.9364 43.1257H64.3863V42.5486ZM63.7029 39.8337L64.2626 39.6928L64.1528 39.2566H63.7029V39.8337ZM58.8457 39.8337V39.2566H58.3958L58.286 39.6928L58.8457 39.8337ZM58.1624 42.5486V43.1257H58.6122L58.722 42.6895L58.1624 42.5486ZM60.8218 31.6152V31.038H60.369L60.2613 31.4779L60.8218 31.6152ZM59.252 38.0238L58.6914 37.8865L58.5164 38.6009H59.252V38.0238ZM63.2966 38.0238V38.6009H64.0301L63.8576 37.888L63.2966 38.0238ZM61.7453 31.6152L62.3062 31.4794L62.1994 31.038H61.7453V31.6152ZM56.6727 42.6868L59.7939 30.0359L58.6732 29.7594L55.552 42.4103L56.6727 42.6868ZM59.2335 30.4748H63.3151V29.3205H59.2335V30.4748ZM62.7549 30.0366L65.8946 42.6876L67.0149 42.4096L63.8752 29.7586L62.7549 30.0366ZM66.4547 41.9714H64.3863V43.1257H66.4547V41.9714ZM64.946 42.4077L64.2626 39.6928L63.1432 39.9746L63.8266 42.6895L64.946 42.4077ZM63.7029 39.2566H58.8457V40.4108H63.7029V39.2566ZM58.286 39.6928L57.6027 42.4077L58.722 42.6895L59.4054 39.9746L58.286 39.6928ZM58.1624 41.9714H56.1123V43.1257H58.1624V41.9714ZM60.2613 31.4779L58.6914 37.8865L59.8126 38.1611L61.3824 31.7525L60.2613 31.4779ZM59.252 38.6009H63.2966V37.4466H59.252V38.6009ZM63.8576 37.888L62.3062 31.4794L61.1843 31.751L62.7357 38.1596L63.8576 37.888ZM61.7453 31.038H60.8218V32.1923H61.7453V31.038ZM69.4811 41.2188L68.9947 41.5295L68.9974 41.5336L69.4811 41.2188ZM69.4996 31.1904L69.978 31.5133L69.9798 31.5106L69.4996 31.1904ZM76.8686 30.1562L77.4451 30.1818L77.4664 29.7032L76.9999 29.5942L76.8686 30.1562ZM76.7947 31.8183L76.6937 32.3866L77.342 32.5018L77.3713 31.844L76.7947 31.8183ZM71.2172 32.5201L71.7113 32.8185L71.7137 32.8144L71.2172 32.5201ZM71.1987 39.9445L70.6982 40.2319L70.7005 40.2359L71.1987 39.9445ZM76.7947 40.6463L77.3715 40.6275L77.3501 39.971L76.7018 40.0767L76.7947 40.6463ZM76.8501 42.3454L76.9707 42.9098L77.4427 42.809L77.4269 42.3266L76.8501 42.3454ZM73.2487 42.1746C71.4907 42.1746 70.476 41.6896 69.9649 40.9041L68.9974 41.5336C69.816 42.7919 71.3131 43.3289 73.2487 43.3289V42.1746ZM69.9676 40.9082C69.4078 40.0315 69.0795 38.4919 69.0795 36.1769H67.9252C67.9252 38.5407 68.2494 40.3623 68.9947 41.5295L69.9676 40.9082ZM69.0795 36.1769C69.0795 33.8597 69.4149 32.3475 69.978 31.5133L69.0213 30.8675C68.2546 32.0033 67.9252 33.8154 67.9252 36.1769H69.0795ZM69.9798 31.5106C70.4893 30.7463 71.4997 30.2716 73.2487 30.2716V29.1173C71.3287 29.1173 69.8397 29.6399 69.0194 30.8703L69.9798 31.5106ZM73.2487 30.2716C74.2914 30.2716 75.4533 30.4182 76.7373 30.7182L76.9999 29.5942C75.649 29.2785 74.3976 29.1173 73.2487 29.1173V30.2716ZM76.292 30.1305L76.2181 31.7927L77.3713 31.844L77.4451 30.1818L76.292 30.1305ZM76.8957 31.2501C75.7548 31.0473 74.6129 30.9457 73.4704 30.9457V32.1C74.5441 32.1 75.6184 32.1954 76.6937 32.3866L76.8957 31.2501ZM73.4704 30.9457C72.2558 30.9457 71.2602 31.3155 70.7207 32.2259L71.7137 32.8144C71.9622 32.395 72.4686 32.1 73.4704 32.1V30.9457ZM70.7231 32.2218C70.4708 32.6397 70.3076 33.1959 70.204 33.8469C70.0991 34.5057 70.0491 35.3032 70.0491 36.2323H71.2033C71.2033 35.3393 71.2518 34.6069 71.3439 34.0284C71.4373 33.4419 71.5696 33.0531 71.7113 32.8185L70.7231 32.2218ZM70.0491 36.2323C70.0491 37.155 70.0975 37.9483 70.1989 38.6058C70.2992 39.2559 70.4567 39.8111 70.6982 40.2319L71.6993 39.6572C71.5591 39.413 71.4303 39.0171 71.3397 38.4298C71.2503 37.8499 71.2033 37.1196 71.2033 36.2323H70.0491ZM70.7005 40.2359C71.2294 41.1402 72.2248 41.5005 73.4334 41.5005V40.3462C72.4258 40.3462 71.9314 40.054 71.6969 39.6531L70.7005 40.2359ZM73.4334 41.5005C74.5737 41.5005 75.7252 41.4055 76.8876 41.2159L76.7018 40.0767C75.5987 40.2566 74.5093 40.3462 73.4334 40.3462V41.5005ZM76.2179 40.6651L76.2733 42.3642L77.4269 42.3266L77.3715 40.6275L76.2179 40.6651ZM76.7296 41.781C75.4954 42.0446 74.3356 42.1746 73.2487 42.1746V43.3289C74.4273 43.3289 75.6684 43.188 76.9707 42.9098L76.7296 41.781ZM87.487 42.5486H86.9098V43.1257H87.487V42.5486ZM87.487 37.0819H88.0641V36.5047H87.487V37.0819ZM82.0203 37.0819V36.5047H81.4431V37.0819H82.0203ZM82.0203 42.5486V43.1257H82.5974V42.5486H82.0203ZM79.9703 42.5486H79.3931V43.1257H79.9703V42.5486ZM79.9703 29.8976V29.3205H79.3931V29.8976H79.9703ZM82.0203 29.8976H82.5974V29.3205H82.0203V29.8976ZM82.0203 35.2904H81.4431V35.8676H82.0203V35.2904ZM87.487 35.2904V35.8676H88.0641V35.2904H87.487ZM87.487 29.8976V29.3205H86.9098V29.8976H87.487ZM89.5555 29.8976H90.1326V29.3205H89.5555V29.8976ZM89.5555 42.5486V43.1257H90.1326V42.5486H89.5555ZM88.0641 42.5486V37.0819H86.9098V42.5486H88.0641ZM87.487 36.5047H82.0203V37.659H87.487V36.5047ZM81.4431 37.0819V42.5486H82.5974V37.0819H81.4431ZM82.0203 41.9714H79.9703V43.1257H82.0203V41.9714ZM80.5474 42.5486V29.8976H79.3931V42.5486H80.5474ZM79.9703 30.4748H82.0203V29.3205H79.9703V30.4748ZM81.4431 29.8976V35.2904H82.5974V29.8976H81.4431ZM82.0203 35.8676H87.487V34.7133H82.0203V35.8676ZM88.0641 35.2904V29.8976H86.9098V35.2904H88.0641ZM87.487 30.4748H89.5555V29.3205H87.487V30.4748ZM88.9783 29.8976V42.5486H90.1326V29.8976H88.9783ZM89.5555 41.9714H87.487V43.1257H89.5555V41.9714Z" fill="#212121"/>
</g>
<defs>
<clipPath id="clip0_36_125">
<rect width="101" height="101" fill="white"/>
</clipPath>
</defs>
</svg>
