<svg width="100" height="100" viewBox="0 0 100 100" fill="none" xmlns="http://www.w3.org/2000/svg">
<path d="M81.0958 49.9979C81.0958 47.7196 80.8338 45.5046 80.3598 43.3639C79.843 40.9816 79.0306 38.7207 78.002 36.581C77.3395 35.2079 76.6208 33.8776 75.7757 32.6371C74.9388 31.3934 73.9827 30.2436 72.9847 29.1396C67.2926 22.8817 59.1081 18.9164 49.9959 18.9164C43.4088 18.9164 37.3038 20.9918 32.2681 24.5005H31.8461C31.8461 24.6065 31.8532 24.7115 31.8603 24.8144C29.0816 26.8185 26.6351 29.2691 24.6555 32.0693C24.3313 32.5127 24.0275 32.9796 23.7339 33.4495C22.9409 34.6891 22.2446 35.9786 21.6412 37.3282C20.4444 39.9939 19.6198 42.8613 19.2151 45.8664C19.0296 47.2263 18.9011 48.6075 18.9011 50.0081C18.9011 67.1549 32.8532 81.106 49.9969 81.106C67.1448 81.0917 81.0958 67.1447 81.0958 49.9979ZM76.3374 48.368C74.3843 55.473 69.0785 61.3639 62.0357 64.6014C63.9083 60.684 65.0805 56.3241 65.3731 51.6911C69.4404 49.3394 72.8451 46.1152 75.2661 42.2966C75.8593 44.2395 76.2049 46.2721 76.3374 48.368ZM73.791 38.5922C71.9174 42.3425 69.0153 45.5759 65.4149 48.004C65.262 43.8787 64.4139 39.9419 62.9908 36.3313C64.6962 34.4098 66.0082 32.1294 66.7686 29.6075C69.7197 32.0448 72.1121 35.109 73.791 38.5922ZM63.6911 27.4536C63.2803 29.4006 62.4638 31.1987 61.3507 32.7635C59.5882 29.4475 57.3181 26.4821 54.6534 24.0244C57.9083 24.6106 60.9572 25.793 63.6911 27.4536ZM49.6891 52.7441C45.5199 52.7441 41.58 51.8481 38.0724 50.2803C38.0601 49.9765 38.0387 49.6809 38.0387 49.3771C38.0387 45.8155 38.6177 42.3965 39.6748 39.2242C42.5209 41.1824 45.9664 42.3353 49.684 42.3353C53.6126 42.3353 57.2365 41.0458 60.1886 38.8889C61.315 42.1539 61.947 45.6758 61.947 49.3771C61.947 49.5881 61.9256 49.7869 61.9195 49.9939C58.263 51.74 54.105 52.7441 49.6891 52.7441ZM61.6687 53.5117C61.0754 58.2487 59.4567 62.6228 57.0703 66.37C54.7187 66.9704 52.2426 67.3017 49.6891 67.3017C47.3955 67.3017 45.1692 67.0469 43.0367 66.5586C40.6341 62.8409 38.9898 58.4862 38.3496 53.7808C41.844 55.1172 45.6707 55.8675 49.6891 55.8675C53.9521 55.8634 58.0051 55.0193 61.6687 53.5117ZM49.9959 24.7431C53.6799 27.4709 56.7146 31.1722 58.8053 35.5137C56.3313 37.5667 53.1539 38.8063 49.6901 38.8063C46.4322 38.8063 43.4353 37.7054 41.0265 35.8613C43.1183 31.3761 46.2131 27.5443 49.9959 24.7431ZM45.3344 24.0244C42.5413 26.6116 40.1794 29.7298 38.3833 33.2416C37.1529 31.6524 36.2467 29.8053 35.7717 27.791C38.629 25.947 41.8665 24.6575 45.3344 24.0244ZM32.7492 30.0438C33.5841 32.6065 34.9959 34.898 36.8114 36.7992C35.4608 40.3955 34.6707 44.2976 34.5627 48.3914C30.8981 46.0509 27.9021 42.9042 25.9185 39.2171C27.5056 35.6779 29.841 32.5586 32.7492 30.0438ZM23.5902 49.9979C23.5902 47.5698 23.9439 45.2222 24.5617 42.9755C27.0805 46.6972 30.5443 49.8063 34.6473 52.0479C34.9888 56.6942 36.212 61.055 38.1254 64.9541C31.3038 62.0591 25.9837 56.7074 23.5984 50.1478C23.5974 50.106 23.5902 50.055 23.5902 49.9979ZM46.581 76.1794C36.8899 74.9174 28.842 68.3833 25.4006 59.5535C29.2345 64.0948 34.5464 67.5484 40.6575 69.2823C42.3129 71.686 44.2528 73.8318 46.4281 75.6636C46.6565 75.7543 46.8889 75.8236 47.1244 75.9001C46.9419 76.0061 46.7584 76.0866 46.581 76.1794ZM49.9959 74.0234C48.5209 72.9286 47.1529 71.7013 45.9093 70.319C47.1458 70.4628 48.4108 70.5423 49.6891 70.5423C51.2059 70.5423 52.6922 70.4312 54.158 70.2354C52.897 71.6452 51.4934 72.9011 49.9959 74.0234ZM53.4078 76.1794C53.2283 76.0887 53.0469 75.9979 52.8767 75.9011C53.106 75.8277 53.3374 75.7543 53.5658 75.6677C55.8084 73.7798 57.8114 71.5474 59.4924 69.0632C65.9113 67.0683 71.3884 63.1957 75.1132 58.1519C72.0143 67.6962 63.6218 74.8481 53.4078 76.1794Z" fill="#F3EE1E"/>
<path d="M60.5933 13.1294C60.7431 13.1468 60.8797 13.1641 61.0398 13.1814C61.9745 13.2833 63.0275 13.372 64.2141 13.6789C64.8063 13.8042 65.421 13.9368 66.053 14.0713C66.6728 14.2711 67.3191 14.475 67.9745 14.6901C69.3242 15.0479 70.6198 15.7502 72.0316 16.319C73.3435 17.0836 74.7839 17.7543 76.0673 18.7258C77.4353 19.582 78.6412 20.6952 79.9154 21.741C81.0479 22.9184 82.2701 24.0438 83.2396 25.3547C84.3272 26.5759 85.1203 27.9724 86.002 29.2599C86.6932 30.6524 87.5301 31.9306 88.0122 33.2854C88.2773 33.9531 88.5454 34.5953 88.8002 35.2212C88.999 35.8715 89.1835 36.4933 89.366 37.0958C89.7737 38.2884 89.9725 39.4281 90.1611 40.4393C90.2589 40.947 90.3497 41.4148 90.4332 41.8542C90.475 42.2976 90.5097 42.7033 90.5444 43.0683C90.6738 44.5433 90.7533 45.3894 90.7533 45.3894H91.7798C91.7798 45.3894 91.7656 44.5188 91.7452 42.9898C91.738 42.6075 91.7309 42.1824 91.7309 41.7217C91.6708 41.265 91.6188 40.7675 91.5556 40.2395C91.4445 39.1783 91.3252 37.9714 90.998 36.6921C90.8512 36.0469 90.7044 35.3792 90.5515 34.6829C90.3283 34.003 90.105 33.2997 89.8716 32.581C89.4669 31.106 88.7034 29.684 88.0673 28.1488C87.2406 26.7084 86.4832 25.1396 85.4231 23.7431C84.4812 22.2497 83.2671 20.9337 82.1162 19.5535C80.8318 18.3068 79.5902 16.9928 78.1601 15.9327C76.8176 14.7574 75.2956 13.8848 73.8838 12.9276C72.37 12.1671 70.9603 11.2813 69.4852 10.7563C68.7554 10.4597 68.0479 10.1743 67.368 9.89497C66.6595 9.686 65.9725 9.48212 65.3201 9.28437C64.0255 8.85215 62.7421 8.62585 61.6014 8.42402C61.2416 8.35674 60.9287 8.30577 60.6035 8.24461V1.64624L49.2447 10.3934L60.6035 19.1376V13.1294H60.5933Z" fill="#F3EE1E"/>
<path d="M17.4924 39.7472H11.4801C11.4995 39.5923 11.5168 39.4577 11.5372 39.2956C11.633 38.3639 11.7238 37.3068 12.0306 36.1244C12.1549 35.5352 12.2905 34.9174 12.423 34.2803C12.6269 33.6636 12.8298 33.0194 13.0408 32.3619C13.4016 31.0112 14.106 29.7227 14.6738 28.3017C15.4383 26.9929 16.1091 25.5505 17.0826 24.265C17.9358 22.896 19.0469 21.6891 20.0968 20.421C21.2722 19.2834 22.4006 18.0663 23.7085 17.0989C24.9327 16.0122 26.3262 15.2161 27.6157 14.3303C29.002 13.6381 30.2844 12.8094 31.6381 12.3303C32.3028 12.054 32.9501 11.791 33.5739 11.5291C34.2243 11.3374 34.8481 11.1468 35.4526 10.9694C36.6422 10.5617 37.7829 10.37 38.7859 10.1794C39.2905 10.0836 39.7645 9.99389 40.2008 9.91234C40.6473 9.86851 41.052 9.83385 41.42 9.80123C42.894 9.66463 43.738 9.59022 43.738 9.59022V8.56677C43.738 8.56677 42.8665 8.579 41.3415 8.59939C40.9582 8.60347 40.5342 8.6106 40.0714 8.6208C39.6147 8.67177 39.1152 8.72579 38.5872 8.79001C37.5219 8.90724 36.3211 9.01937 35.0398 9.35372C34.3925 9.49338 33.7176 9.64322 33.0255 9.79409C32.3466 10.0153 31.6453 10.2406 30.9225 10.476C29.4506 10.8777 28.0326 11.6412 26.4924 12.2793C25.0571 13.1091 23.4883 13.8593 22.0846 14.9236C20.5953 15.8675 19.2763 17.0775 17.9021 18.2304C16.6544 19.5178 15.3395 20.7594 14.2793 22.1865C13.104 23.526 12.2314 25.051 11.2752 26.4608C10.5168 27.9715 9.62691 29.3792 9.09888 30.8552C8.8053 31.5841 8.51988 32.2905 8.24261 32.9766C8.02854 33.6809 7.82773 34.37 7.63201 35.0245C7.19572 36.317 6.97146 37.6045 6.77064 38.7462C6.70235 39.104 6.64832 39.4139 6.5841 39.7421H0L8.74516 51.0989L17.4924 39.7472Z" fill="#F3EE1E"/>
<path d="M37.8787 86.8817C37.7258 86.8582 37.5892 86.8399 37.4292 86.8225C36.4995 86.7206 35.4424 86.6329 34.2569 86.3241C33.6667 86.2058 33.0571 86.0692 32.418 85.9326C31.7992 85.7308 31.157 85.529 30.4995 85.3159C29.1489 84.9561 27.8553 84.2558 26.4373 83.6859C25.1275 82.9224 23.6871 82.2497 22.4017 81.2802C21.0347 80.4209 19.8288 79.3118 18.5576 78.266C17.418 77.0866 16.2008 75.9591 15.2365 74.6482C14.1499 73.427 13.3527 72.0285 12.4679 70.744C11.7768 69.3496 10.945 68.0723 10.4679 66.7186C10.1917 66.0499 9.92664 65.4077 9.67078 64.7838C9.47404 64.1304 9.28851 63.5106 9.10604 62.9102C8.69626 61.7165 8.4985 60.5728 8.31094 59.5646C8.21308 59.059 8.12439 58.5922 8.03877 58.1518C7.99901 57.7053 7.96435 57.3006 7.93275 56.9347C7.79616 55.4596 7.7248 54.6156 7.7248 54.6156H6.70135C6.70135 54.6156 6.71155 55.4872 6.73296 57.0152C6.73805 57.3985 6.74519 57.8205 6.75232 58.2812C6.80125 58.7379 6.8614 59.2395 6.9195 59.7634C7.03775 60.8236 7.15497 62.0315 7.48423 63.3108C7.62592 63.9561 7.77781 64.6258 7.92765 65.3241C8.14988 66.0009 8.37414 66.7043 8.60961 67.424C9.01226 68.8959 9.77679 70.32 10.4129 71.8552C11.2416 73.2955 11.9949 74.8623 13.0551 76.2609C14.0061 77.7542 15.2131 79.0723 16.3639 80.4494C17.6524 81.6992 18.893 83.0111 20.3211 84.0713C21.6606 85.2497 23.1835 86.1222 24.5974 87.0784C26.1081 87.8389 27.5189 88.7247 28.998 89.2476C29.7217 89.5483 30.4302 89.8297 31.1152 90.11C31.8196 90.3231 32.5056 90.5249 33.1631 90.7206C34.4557 91.1538 35.737 91.3771 36.8848 91.583C37.2406 91.6482 37.5566 91.7012 37.8808 91.7604V98.3547L49.2375 89.6054L37.8808 80.8592V86.8837H37.8787V86.8817Z" fill="#F3EE1E"/>
<path d="M91.2569 49.7114L82.5076 61.0713H88.5219C88.5005 61.2211 88.4873 61.3608 88.4658 61.5208C88.367 62.4556 88.2762 63.5096 87.9704 64.6951C87.845 65.2813 87.7197 65.8959 87.579 66.53C87.3772 67.1538 87.1682 67.796 86.9551 68.4495C86.5994 69.8022 85.895 71.0937 85.3262 72.5127C84.5657 73.8205 83.8889 75.2649 82.9195 76.5494C82.0683 77.9204 80.9551 79.1233 79.9082 80.3934C78.7268 81.531 77.6024 82.7512 76.2915 83.7186C75.0703 84.8032 73.6748 85.6024 72.3843 86.4851C71 87.1763 69.7186 88.0091 68.3659 88.4872C67.7003 88.7604 67.054 89.0274 66.4261 89.2823C65.7778 89.4811 65.1498 89.6625 64.5494 89.848C63.3568 90.2558 62.2161 90.4556 61.2079 90.6431C60.7054 90.741 60.2314 90.8317 59.791 90.9082C59.3517 90.9571 58.947 90.9887 58.578 91.0193C57.106 91.1528 56.262 91.2293 56.262 91.2293V92.2548C56.262 92.2548 57.1335 92.2405 58.6585 92.2201C59.0387 92.216 59.4648 92.2089 59.9246 92.2017C60.3853 92.1498 60.8838 92.0947 61.4108 92.0315C62.4791 91.9163 63.6789 91.8001 64.9623 91.4698C65.6075 91.3261 66.2803 91.1803 66.9755 91.0254C67.6554 90.8062 68.3537 90.5789 69.0724 90.3496C70.5504 89.9449 71.9674 89.1814 73.5097 88.5422C74.947 87.7124 76.5127 86.9622 77.9195 85.902C79.4047 84.9489 80.7237 83.743 82.0989 82.5911C83.3476 81.3037 84.6626 80.0651 85.7237 78.635C86.8991 77.2965 87.7717 75.7746 88.7268 74.3587C89.4832 72.849 90.3731 71.4423 90.9042 69.9663C91.1967 69.2374 91.4821 68.529 91.7625 67.8419C91.9745 67.1406 92.1733 66.4505 92.369 65.7971C92.8094 64.5065 93.0316 63.216 93.2355 62.0794C93.3007 61.7226 93.3537 61.4066 93.4169 61.0815H100L91.2569 49.7114Z" fill="#F3EE1E"/>
</svg>
