<svg width="100" height="100" viewBox="0 0 100 100" fill="none" xmlns="http://www.w3.org/2000/svg">
<path d="M76.9902 0H23.0099C18.813 0 15.3989 3.41617 15.3989 7.61567V92.3895C15.3989 96.5859 18.813 100 23.0099 100H76.9902C81.1871 100 84.6012 96.5859 84.6012 92.3895V7.61567C84.6012 3.41617 81.1871 0 76.9902 0ZM23.227 28.0068H76.7731V67.1503H23.227V28.0068ZM76.7731 7.82807V20.1787H23.227V7.82807H76.7731ZM23.227 92.1719V74.9783H76.7731V92.1719H23.227Z" fill="#F3EE1E"/>
<path d="M50.0017 76.651C46.1863 76.651 43.0827 79.7577 43.0827 83.5762C43.0827 87.3896 46.1863 90.4916 50.0017 90.4916C53.8182 90.4916 56.9228 87.3896 56.9228 83.5762C56.9228 79.7577 53.8176 76.651 50.0017 76.651ZM50.0017 86.3161C48.4789 86.3161 47.2577 85.0912 47.2577 83.5757C47.2577 82.0571 48.4789 80.8255 50.0017 80.8255C51.5224 80.8255 52.7478 82.0565 52.7478 83.5757C52.7478 85.0918 51.5224 86.3161 50.0017 86.3161Z" fill="#F3EE1E"/>
<path d="M58.0212 11.3977H41.981V16.6164H58.0212V11.3977Z" fill="#F3EE1E"/>
<path d="M64.7958 58.6834L58.8689 52.7565C60.2873 50.6377 61.1166 48.0926 61.1166 45.3569C61.1166 38.0027 55.1333 32.0189 47.7791 32.0189C40.4243 32.0189 34.4406 38.0022 34.4406 45.3569C34.4406 52.7106 40.4243 58.6939 47.7791 58.6939C50.5147 58.6939 53.0599 57.8651 55.1787 56.4467L61.1061 62.3736L64.7958 58.6834ZM47.7786 53.4752C43.3014 53.4752 39.6588 49.8335 39.6588 45.3569C39.6588 40.8798 43.3009 37.2376 47.7786 37.2376C52.2552 37.2376 55.8973 40.8798 55.8973 45.3569C55.8973 49.8335 52.2552 53.4752 47.7786 53.4752Z" fill="#F3EE1E"/>
</svg>
