<svg width="100" height="100" viewBox="0 0 100 100" fill="none" xmlns="http://www.w3.org/2000/svg">
<g clip-path="url(#clip0_39_69)">
<path d="M90.6246 12.5H85.6246C73.3827 12.4855 61.5073 8.32141 51.9371 0.687524C51.3854 0.251558 50.7028 0.0144043 49.9996 0.0144043C49.2964 0.0144043 48.6138 0.251558 48.0621 0.687524C38.4919 8.32141 26.6165 12.4855 14.3746 12.5H9.37458C8.54578 12.5 7.75092 12.8293 7.16487 13.4153C6.57882 14.0014 6.24958 14.7962 6.24958 15.625V41.875C6.17895 54.8854 10.3109 67.5709 18.0304 78.0439C25.75 88.5168 36.6447 96.2175 49.0933 100C49.686 100.167 50.3132 100.167 50.9058 100C63.3544 96.2175 74.2491 88.5168 81.9687 78.0439C89.6883 67.5709 93.8202 54.8854 93.7496 41.875V15.625C93.7496 14.7962 93.4203 14.0014 92.8343 13.4153C92.2482 12.8293 91.4534 12.5 90.6246 12.5ZM87.4996 41.875C87.5726 53.3845 83.9768 64.618 77.2338 73.9457C70.4909 83.2734 60.9515 90.2103 49.9996 93.75C39.0477 90.2103 29.5083 83.2734 22.7653 73.9457C16.0224 64.618 12.4266 53.3845 12.4996 41.875V18.75H14.3746C27.1897 18.7379 39.6678 14.6442 49.9996 7.06252C60.3313 14.6442 72.8095 18.7379 85.6246 18.75H87.4996V41.875Z" fill="#F3EE1E"/>
<path d="M48.4368 37.5H59.3743C60.2031 37.5 60.9979 37.1708 61.584 36.5847C62.17 35.9987 62.4993 35.2038 62.4993 34.375C62.4993 33.5462 62.17 32.7513 61.584 32.1653C60.9979 31.5792 60.2031 31.25 59.3743 31.25H53.1243V28.125C53.1243 27.2962 52.795 26.5013 52.209 25.9153C51.6229 25.3292 50.8281 25 49.9993 25C49.1705 25 48.3756 25.3292 47.7896 25.9153C47.2035 26.5013 46.8743 27.2962 46.8743 28.125V31.4063C43.9735 31.6135 41.2738 32.9645 39.3691 35.1622C37.4644 37.3599 36.5108 40.2242 36.718 43.125C36.9252 46.0258 38.2763 48.7255 40.474 50.6302C42.6717 52.5348 45.536 53.4885 48.4368 53.2812H51.5618C52.805 53.2812 53.9972 53.7751 54.8763 54.6542C55.7554 55.5333 56.2493 56.7255 56.2493 57.9688C56.2493 59.212 55.7554 60.4042 54.8763 61.2833C53.9972 62.1624 52.805 62.6562 51.5618 62.6562H40.6243C39.7955 62.6562 39.0006 62.9855 38.4146 63.5715C37.8285 64.1576 37.4993 64.9524 37.4993 65.7812C37.4993 66.6101 37.8285 67.4049 38.4146 67.991C39.0006 68.577 39.7955 68.9062 40.6243 68.9062H46.8743V72.0312C46.8743 72.8601 47.2035 73.6549 47.7896 74.241C48.3756 74.827 49.1705 75.1562 49.9993 75.1562C50.8281 75.1562 51.6229 74.827 52.209 74.241C52.795 73.6549 53.1243 72.8601 53.1243 72.0312V68.75C56.0251 68.5428 58.7248 67.1917 60.6294 64.9941C62.5341 62.7964 63.4877 59.9321 63.2805 57.0313C63.0733 54.1304 61.7223 51.4308 59.5246 49.5261C57.3269 47.6214 54.4626 46.6678 51.5618 46.875H48.4368C47.1936 46.875 46.0013 46.3811 45.1222 45.5021C44.2431 44.623 43.7493 43.4307 43.7493 42.1875C43.7493 40.9443 44.2431 39.752 45.1222 38.8729C46.0013 37.9939 47.1936 37.5 48.4368 37.5Z" fill="#F3EE1E"/>
</g>
<defs>
<clipPath id="clip0_39_69">
<rect width="100" height="100" fill="white"/>
</clipPath>
</defs>
</svg>
