<svg width="100" height="100" viewBox="0 0 100 100" fill="none" xmlns="http://www.w3.org/2000/svg">
<path d="M97.7978 86.3019H84.4782V30.2128L89.6826 25.0618L89.6828 33.069C89.6828 34.2852 90.6688 35.2712 91.885 35.2712C93.1013 35.2712 94.0873 34.2852 94.0873 33.069L94.0871 19.5176C94.0871 18.3013 93.1011 17.3154 91.8848 17.3154H78.3341C77.1178 17.3154 76.1318 18.3013 76.1318 19.5176C76.1318 20.7339 77.1178 21.7199 78.3341 21.7199H86.7983L53.9557 54.225L38.3816 38.5387C37.9682 38.1222 37.4057 37.8879 36.8188 37.8879C36.8186 37.8879 36.8184 37.8879 36.8182 37.8879C36.2311 37.8881 35.6686 38.1226 35.2552 38.5396L5.56623 68.475C4.70987 69.3385 4.71553 70.733 5.57902 71.5894C6.00857 72.0154 6.56919 72.228 7.12982 72.228C7.69632 72.228 8.26283 72.0108 8.69342 71.5766L11.3334 68.9146V86.3021H4.40449V11.4962C4.40449 10.2799 3.41851 9.29395 2.20225 9.29395C0.985977 9.29395 0 10.2799 0 11.4962V88.5041C0 89.7204 0.985977 90.7064 2.20225 90.7064H97.7978C99.014 90.7064 100 89.7204 100 88.5041C100 87.2878 99.014 86.3019 97.7978 86.3019ZM80.0737 86.3019H56.1445V58.2555L80.0737 34.5722V86.3019ZM39.0209 45.4338L51.7398 58.2442V86.3017H39.0209V45.4338ZM15.7379 64.4732L34.6164 45.4378V86.3017H15.7379V64.4732V64.4732Z" fill="#F3EE1E"/>
</svg>
